<svg id="svg" xmlns="http://www.w3.org/2000/svg" xmlns:xlink="http://www.w3.org/1999/xlink" width="400" height="400" viewBox="0, 0, 400,400" version="1.1"><g id="svgg"><path id="path0" d="M285.714 65.553 C 258.127 67.496,213.265 79.652,213.265 85.186 C 213.265 87.841,228.066 104.082,230.486 104.082 C 231.545 104.082,240.502 100.271,250.390 95.613 C 269.440 86.640,312.534 71.429,318.906 71.429 C 320.992 71.429,328.708 77.381,336.055 84.655 L 349.413 97.882 343.767 107.614 C 334.157 124.183,320.195 143.203,305.701 159.469 L 291.809 175.061 307.270 190.082 C 326.709 208.966,324.417 208.857,335.204 191.409 C 357.138 155.930,363.224 124.291,356.007 83.259 C 354.331 73.728,349.766 70.797,331.633 67.609 C 312.075 64.170,307.969 63.987,285.714 65.553 M218.975 115.182 C 213.855 120.301,208.553 124.490,207.191 124.490 C 204.240 124.490,199.886 129.472,195.919 137.388 C 190.318 148.565,177.654 157.063,166.501 157.131 C 165.474 157.138,160.883 160.691,156.297 165.027 C 148.335 172.556,130.205 188.889,117.548 199.935 L 111.627 205.102 116.167 198.787 C 118.664 195.313,128.406 186.167,137.817 178.461 C 147.227 170.755,154.593 164.116,154.184 163.708 C 152.534 162.058,141.660 169.252,108.148 194.162 C 99.721 200.426,88.012 208.514,82.127 212.134 C 61.973 224.536,69.428 226.097,92.376 214.281 C 101.090 209.794,108.713 206.122,109.314 206.122 C 109.915 206.122,103.947 213.857,96.052 223.310 C 88.083 232.851,82.756 240.851,84.079 241.292 C 85.390 241.729,79.962 247.273,72.017 253.612 C 53.232 268.600,48.980 274.170,48.980 283.782 C 48.980 309.637,72.267 302.525,87.283 272.083 C 96.982 252.419,124.830 218.106,154.799 188.892 C 168.997 175.051,173.939 174.815,161.845 188.555 C 157.419 193.583,151.510 201.199,148.712 205.481 C 145.914 209.762,140.302 218.316,136.241 224.490 C 105.685 270.934,110.236 272.361,152.930 229.722 C 179.688 203.000,187.521 196.238,189.272 198.349 C 191.419 200.935,124.488 271.882,114.772 277.319 C 104.437 283.103,117.275 280.915,141.183 272.818 C 156.134 267.754,171.479 262.973,175.283 262.194 C 179.086 261.414,189.886 256.853,199.282 252.058 L 216.366 243.340 209.203 251.267 C 205.264 255.628,202.041 260.148,202.041 261.313 C 202.041 266.417,179.931 294.154,166.936 305.351 C 156.910 313.991,135.962 328.571,133.576 328.571 C 126.757 328.571,102.047 343.823,99.223 349.776 C 85.451 378.798,117.604 380.201,138.818 351.503 C 143.578 345.064,151.767 335.663,157.017 330.612 C 162.268 325.561,165.637 322.117,164.506 322.959 C 160.302 326.087,158.708 324.359,162.624 320.918 C 167.130 316.960,215.411 253.432,220.328 244.991 C 221.751 242.550,223.020 242.462,227.485 244.497 C 234.347 247.623,238.501 244.090,240.188 233.694 C 241.244 227.185,240.907 226.530,236.492 226.523 C 221.916 226.500,213.034 211.059,218.343 194.972 C 223.156 180.389,235.959 175.990,251.102 183.715 C 258.719 187.601,263.054 195.799,256.076 193.122 C 252.568 191.775,244.898 198.481,244.898 202.894 C 244.898 213.772,252.287 215.159,260.192 205.764 C 266.246 198.570,266.149 196.369,259.077 180.284 C 254.851 170.675,254.729 169.469,257.678 166.520 C 259.456 164.742,262.943 160.757,265.426 157.664 C 268.753 153.521,270.212 152.803,270.970 154.937 C 272.175 158.329,288.305 173.600,289.461 172.443 C 294.264 167.641,255.937 121.660,239.141 112.073 L 228.282 105.875 218.975 115.182 M161.296 134.560 C 158.636 139.530,158.551 146.939,161.153 146.939 C 163.810 146.939,167.347 140.023,167.347 134.828 C 167.347 129.519,164.072 129.373,161.296 134.560 M190.816 259.675 C 188.571 261.000,185.163 262.338,183.242 262.650 C 176.865 263.683,157.988 277.078,152.183 284.689 L 146.464 292.187 153.334 288.664 C 157.113 286.726,164.043 282.514,168.735 279.305 C 173.427 276.095,177.851 273.469,178.565 273.469 C 179.280 273.469,182.874 271.173,186.553 268.367 C 190.232 265.561,194.191 263.265,195.351 263.265 C 196.511 263.265,198.603 261.888,200.000 260.204 C 203.219 256.326,197.092 255.973,190.816 259.675 M224.490 267.787 C 221.684 272.318,210.663 284.290,200.000 294.393 C 189.337 304.496,181.760 312.132,183.163 311.363 C 184.672 310.535,185.714 311.167,185.714 312.911 C 185.714 316.978,214.303 287.180,223.359 273.673 C 227.423 267.612,230.488 261.955,230.170 261.101 C 229.852 260.248,227.296 263.257,224.490 267.787 " stroke="none" fill="#000000" fill-rule="evenodd"></path></g></svg>